<svg width="106" height="50" viewBox="0 0 106 50" fill="none" xmlns="http://www.w3.org/2000/svg">
<path opacity="0.5" fill-rule="evenodd" clip-rule="evenodd" d="M95.5339 21.0709C94.1217 22.4993 92.765 23.8714 91.7086 24.9396L103.014 36.4178C104.783 38.2139 104.783 41.1074 103.014 42.9036C101.22 44.725 98.2922 44.725 96.4982 42.9036L82.5452 28.7372C80.4849 26.6454 80.4849 23.2725 82.5452 21.1807L96.5178 6.99453C98.3118 5.17309 101.24 5.17309 103.034 6.99453C104.803 8.79065 104.803 11.6841 103.034 13.4802C101.972 14.5582 98.6186 17.9509 95.5339 21.0709Z" fill="black"/>
<path opacity="0.7" fill-rule="evenodd" clip-rule="evenodd" d="M55.5339 21.0709C54.1217 22.4993 52.765 23.8714 51.7086 24.9396L63.014 36.4178C64.7831 38.2139 64.7831 41.1074 63.014 42.9036C61.22 44.725 58.2922 44.725 56.4982 42.9036L42.5452 28.7372C40.4849 26.6454 40.4849 23.2725 42.5452 21.1807L56.5178 6.99453C58.3118 5.17309 61.2396 5.17309 63.0336 6.99453C64.8027 8.79065 64.8027 11.6841 63.0336 13.4802C61.9719 14.5582 58.6186 17.9509 55.5339 21.0709Z" fill="black"/>
<path fill-rule="evenodd" clip-rule="evenodd" d="M15.5339 21.0709C14.1217 22.4993 12.765 23.8714 11.7086 24.9396L23.014 36.4178C24.7831 38.2139 24.7831 41.1074 23.014 42.9036C21.22 44.725 18.2922 44.725 16.4982 42.9036L2.54522 28.7372C0.484928 26.6454 0.484925 23.2725 2.54522 21.1807L16.5178 6.99453C18.3118 5.17309 21.2396 5.17309 23.0336 6.99453C24.8027 8.79065 24.8027 11.6841 23.0336 13.4802C21.9719 14.5582 18.6186 17.9509 15.5339 21.0709Z" fill="black"/>
</svg>
