<svg width="450" height="450" viewBox="0 0 450 450" fill="none" xmlns="http://www.w3.org/2000/svg">
<g clip-path="url(#clip0_3_37)">
<path fill-rule="evenodd" clip-rule="evenodd" d="M278.359 37.9923L36.1106 280.241C34.3532 281.998 34.3532 284.847 36.1106 286.604L167.007 417.501C168.764 419.258 171.614 419.258 173.371 417.501L415.619 175.253C416.5 174.372 416.977 173.165 416.935 171.919L412.666 45.2911C412.587 42.9248 410.687 41.025 408.32 40.9452L281.692 36.6769C280.447 36.6349 279.24 37.1112 278.359 37.9923ZM15.6045 259.734L257.853 17.4862C264.412 10.9267 273.398 7.38079 282.669 7.6933L409.297 11.9617C426.913 12.5555 441.056 26.6981 441.65 44.3141L445.918 170.942C446.231 180.214 442.685 189.199 436.125 195.759L193.877 438.007C180.795 451.09 159.584 451.09 146.501 438.007L15.6045 307.111C2.52189 294.028 2.52191 272.817 15.6045 259.734Z" fill="black"/>
<path fill-rule="evenodd" clip-rule="evenodd" d="M393.463 58.4067C405.145 70.0886 405.145 89.0289 393.463 100.711C381.781 112.393 362.841 112.393 351.159 100.711C339.477 89.0288 339.477 70.0886 351.159 58.4067C362.841 46.7247 381.781 46.7247 393.463 58.4067ZM382.15 89.3971C387.583 83.9635 387.583 75.154 382.15 69.7204C376.716 64.2868 367.906 64.2868 362.473 69.7204C357.039 75.154 357.039 83.9635 362.473 89.3971C367.906 94.8307 376.716 94.8307 382.15 89.3971Z" fill="black"/>
<path fill-rule="evenodd" clip-rule="evenodd" d="M295.154 103.143C301.011 109.001 301.011 118.498 295.154 124.356L123.446 296.064C117.588 301.922 108.09 301.922 102.233 296.064L101.055 294.886C95.1971 289.029 95.1971 279.531 101.055 273.673L272.763 101.965C278.621 96.1075 288.118 96.1075 293.976 101.965L295.154 103.143Z" fill="black"/>
<path fill-rule="evenodd" clip-rule="evenodd" d="M318.666 190.812C324.524 196.67 324.524 206.167 318.666 212.025L179.073 351.618C173.215 357.476 163.718 357.476 157.86 351.618L156.682 350.441C150.824 344.583 150.824 335.086 156.682 329.228L296.275 189.635C302.133 183.777 311.631 183.777 317.489 189.635L318.666 190.812Z" fill="black"/>
</g>
<defs>
<clipPath id="clip0_3_37">
<rect width="450" height="450" fill="white"/>
</clipPath>
</defs>
</svg>
