<?xml version="1.0" standalone="no"?>
<!DOCTYPE svg PUBLIC "-//W3C//DTD SVG 20010904//EN"
 "http://www.w3.org/TR/2001/REC-SVG-20010904/DTD/svg10.dtd">
<svg version="1.0" xmlns="http://www.w3.org/2000/svg"
 width="700.000000pt" height="700.000000pt" viewBox="0 0 700.000000 700.000000"
 preserveAspectRatio="xMidYMid meet">
<metadata>
Created by potrace 1.14, written by Peter Selinger 2001-2017
</metadata>
<g transform="translate(0.000000,700.000000) scale(0.100000,-0.100000)"
fill="#000000" stroke="none">
<path d="M1240 4518 c0 -2518 -5 -2312 67 -2493 193 -485 766 -1023 1613
-1514 181 -105 559 -301 580 -301 18 0 256 116 409 199 922 502 1533 1023
1780 1518 27 54 62 136 77 183 l29 85 3 2298 2 2297 -2280 0 -2280 0 0 -2272z
m2365 1683 c22 -10 54 -30 72 -45 110 -92 97 -304 -23 -389 l-44 -31 0 -72 0
-71 -77 -7 c-43 -4 -93 -9 -110 -12 l-33 -6 0 91 c0 90 0 91 -29 105 -41 22
-96 89 -109 135 -39 128 18 253 138 305 50 22 165 20 215 -3z m198 -662 c33
-6 55 -5 69 2 37 20 137 5 208 -30 70 -35 185 -119 238 -174 l34 -35 -17 -35
c-9 -19 -28 -45 -43 -59 l-27 -25 -135 8 c-223 15 -325 44 -384 109 l-36 40
-99 0 c-299 0 -472 -118 -488 -332 -8 -104 19 -165 99 -224 32 -23 78 -50 103
-60 l45 -17 0 -159 0 -160 -27 7 c-66 16 -232 88 -281 121 -153 102 -222 241
-222 443 0 227 104 393 311 495 187 92 440 125 652 85z m-208 -991 c-7 -685
-9 -764 -24 -775 -18 -14 -146 -83 -154 -83 -2 0 -7 300 -11 668 -3 367 -9
724 -12 794 l-6 127 38 10 c47 12 86 18 138 20 l38 1 -7 -762z m108 26 c224
-114 329 -266 343 -499 11 -166 -38 -313 -138 -414 -68 -69 -146 -119 -336
-216 -173 -88 -243 -143 -278 -220 -48 -102 -18 -246 61 -298 30 -19 33 -27
39 -87 3 -36 6 -85 6 -109 0 -43 0 -43 -29 -38 -62 13 -167 72 -218 124 -70
71 -94 136 -101 273 -11 239 84 405 301 523 48 26 125 68 171 93 98 54 170
121 200 184 31 69 28 189 -7 261 -14 30 -41 69 -59 86 l-33 32 3 166 c2 100 7
165 13 165 5 0 33 -12 62 -26z m-129 -1729 l-7 -556 -64 -35 c-35 -20 -66 -35
-67 -33 -2 2 -7 252 -11 555 l-8 550 79 41 c43 23 80 40 82 38 2 -2 0 -254 -4
-560z m120 -67 c60 -31 131 -103 157 -161 19 -43 23 -69 23 -152 0 -85 -3
-107 -23 -148 -44 -89 -108 -140 -289 -228 -90 -44 -181 -96 -203 -116 -77
-70 -75 -161 7 -252 39 -43 44 -55 44 -95 0 -57 -10 -58 -81 -7 -108 78 -152
181 -128 304 20 107 94 180 297 291 130 71 175 105 196 150 34 71 9 171 -54
218 -30 22 -30 22 -30 126 0 117 -3 114 84 70z m-139 -1544 l-6 -71 -46 -22
c-25 -12 -48 -19 -52 -16 -4 5 -16 632 -16 861 0 1 27 15 60 32 l60 30 3 -372
c2 -204 0 -403 -3 -442z m98 296 c62 -55 87 -110 87 -190 0 -116 -63 -197
-207 -266 -72 -35 -226 -75 -238 -62 -15 15 10 28 118 62 153 48 215 95 245
185 25 71 8 144 -42 190 -21 20 -26 33 -26 73 0 26 4 48 9 48 4 0 29 -18 54
-40z m-105 -667 l-3 -178 -28 -9 c-19 -7 -34 -7 -45 0 -15 10 -17 34 -20 173
-2 148 -1 161 15 161 10 1 29 7 43 15 14 8 28 14 33 15 4 0 6 -80 5 -177z"/>
</g>
</svg>
