<svg width="1024" height="1024" viewBox="0 0 1024 1024" fill="none" xmlns="http://www.w3.org/2000/svg">
<path d="M182 30H848V698C816.3 859.19 512 994 512 994C512 994 213.697 859.187 182 698V30Z" fill="#9F262C"/>
<path d="M501.776 732.658L503.397 861.496C515.346 857.612 520.612 853.132 520.612 853.132L522.165 722.887C522.165 722.887 508.383 728.88 501.776 732.658Z" fill="white" stroke="#9F262C" stroke-width="1.33333"/>
<path d="M528.33 207.035L528.596 184.711C543.153 178.422 550.125 164.413 550.017 148.799C549.873 128.234 532.795 112.798 511.512 112.798C490.228 112.798 473.104 127.394 472.961 148.799C472.853 165.153 482.014 178.175 494.865 183.358L495.205 210.248C504.592 208.474 515.301 207.194 528.33 207.035Z" fill="white" stroke="#9F262C" stroke-width="1.33333"/>
<path d="M495.719 251.101L498.674 486.09C507.31 481.652 517.434 476.585 525.176 471.164L527.859 246.479C523.206 246.608 510.192 246.743 495.719 251.101Z" fill="white" stroke="#9F262C" stroke-width="1.33333"/>
<path d="M499.326 537.876L501.377 700.903C506.238 698.231 515.941 693.399 522.572 689.291L524.55 523.636C517.269 527.275 508.07 531.553 499.326 537.876Z" fill="white" stroke="#9F262C" stroke-width="1.33333"/>
<path d="M503.59 876.865L504.177 923.513C504.177 923.513 512.369 931.48 519.785 922.709L520.411 870.306C520.411 870.306 512.081 874.509 503.59 876.865Z" fill="white" stroke="#9F262C" stroke-width="1.33333"/>
<path d="M524.728 809.451C531.915 814.624 536.671 820.849 536.291 830.037C534.63 870.11 479.324 865.249 480.406 875.187C481.081 881.395 545.537 868.149 548.272 832.292C549.857 811.493 538.525 800.839 524.929 792.426L524.728 809.451Z" fill="white" stroke="#9F262C" stroke-width="1.33333"/>
<path d="M496.479 598.89C485.915 592.858 478.561 584.152 478.737 568.12C479.387 508.484 594.185 527.923 592.984 432.423C592.354 382.325 562.07 362.295 530.27 349.083L529.578 400.164C540.238 408.103 547.247 419.097 547.545 436.375C548.604 497.795 448.766 476.545 445.225 564.032C443.305 611.501 470.681 623.751 496.839 632.286" fill="white"/>
<path d="M496.479 598.89C485.915 592.858 478.561 584.152 478.737 568.12C479.387 508.484 594.185 527.923 592.984 432.423C592.354 382.325 562.07 362.295 530.27 349.083L529.578 400.164C540.238 408.103 547.247 419.097 547.545 436.375C548.604 497.795 448.766 476.545 445.225 564.032C443.305 611.501 470.681 623.751 496.839 632.286" stroke="#9F262C" stroke-width="1.33333"/>
<path d="M493.186 335.011C473.515 327.09 458.48 317.985 457.327 300.06C453.002 232.879 543.042 243.509 543.042 243.509C552.597 264.035 590.031 264.996 625.296 266.389C625.296 266.389 635.032 258.173 637.106 247.9C637.106 247.9 592.712 198.654 562.674 214.223C518.2 202.826 415.121 213.891 414.523 296.766C414.072 359.099 456.699 370.992 493.813 383.684L493.186 335.011Z" fill="white" stroke="#9F262C" stroke-width="1.33333"/>
<path d="M526.722 643.313C536.321 648.598 542.652 656.091 542.254 669.365C541.291 701.575 464.975 701.447 466.634 752.395C467.395 775.775 482.829 786.821 498.977 795.384L498.767 776.903C491.181 771.395 485.388 764.775 484.004 755.1C478.209 714.575 572.857 726.885 568.231 659.348C566.143 628.864 547.086 618.536 527.09 611.095L526.722 643.313Z" fill="white" stroke="#9F262C" stroke-width="1.33333"/>
</svg>
